#!OML:ASF F:\VICON\USERDATA\INSTALL\rory3\rory3.ASF
:FULLY-SPECIFIED
:DEGREES
48
root -0.470581 18.8942 -12.9336 2.51727 -8.34789 0.933459
lowerback 3.3352 0.547737 -1.95962
upperback -1.56463 0.586079 -1.51696
thorax -3.48533 0.317788 -0.499927
lowerneck -10.2476 -6.40107 -10.188
upperneck 16.7959 -8.58278 8.41314
head 7.66164 -4.04987 3.57162
rclavicle -8.36759e-015 -5.96354e-015
rhumerus -38.1876 -0.0642577 -81.697
rradius 34.6242
rwrist 14.6419
rhand -18.7525 4.25242
rfingers 7.12502
rthumb 7.54405 -25.593
lclavicle -8.36759e-015 -5.96354e-015
lhumerus -39.2972 16.1157 71.7943
lradius 28.2723
lwrist -1.83896
lhand -13.6362 24.1201
lfingers 7.12502
lthumb 12.4799 53.7275
rfemur -3.62333 22.0044 17.239
rtibia 15.8923
rfoot -12.972 -18.329
rtoes -5.59845
lfemur -1.1547 -6.97306 -20.8072
ltibia 12.7783
lfoot -13.1413 17.3248
ltoes -3.40209
49
root -0.468808 18.8936 -12.9319 2.49322 -8.38916 0.897406
lowerback 3.41826 0.541576 -1.92474
upperback -1.5743 0.576791 -1.51485
thorax -3.54182 0.312705 -0.517745
lowerneck -10.2925 -6.37574 -10.2002
upperneck 16.8872 -8.56267 8.4889
head 7.70134 -4.03332 3.60045
rclavicle -4.08254e-014 3.97569e-016
rhumerus -38.3 0.026235 -81.7633
rradius 34.6832
rwrist 14.6364
rhand -18.621 4.00879
rfingers 7.12502
rthumb 7.67099 -25.8321
lclavicle -4.08254e-014 3.97569e-016
lhumerus -39.3718 16.2473 71.6784
lradius 28.117
lwrist -1.88333
lhand -13.6592 24.0114
lfingers 7.12502
lthumb 12.4577 53.6201
rfemur -3.61286 22.0597 17.2866
rtibia 15.9294
rfoot -12.9411 -18.3476
rtoes -5.87669
lfemur -1.10821 -6.93617 -20.782
ltibia 12.7677
lfoot -13.1217 17.319
ltoes -3.50526
50
root -0.467336 18.8928 -12.9323 2.46448 -8.4071 0.827438
lowerback 3.49054 0.545107 -1.8598
upperback -1.52786 0.583921 -1.50596
thorax -3.534 0.314679 -0.545794
lowerneck -10.3875 -6.39339 -10.1449
upperneck 16.8963 -8.58189 8.45528
head 7.71925 -4.03916 3.57549
rclavicle 3.31846e-014 1.03368e-014
rhumerus -38.2493 0.0544226 -81.8157
rradius 34.6686
rwrist 14.6034
rhand -18.6312 3.72833
rfingers 7.12502
rthumb 7.66108 -26.1129
lclavicle 3.31846e-014 1.03368e-014
lhumerus -39.3564 16.3877 71.6027
lradius 28.0045
lwrist -1.98283
lhand -13.7083 24.1554
lfingers 7.12502
lthumb 12.4103 53.767
rfemur -3.56746 22.1044 17.3772
rtibia 15.9334
rfoot -12.9808 -18.3719
rtoes -5.97227
lfemur -1.08066 -6.9621 -20.7189
ltibia 12.7958
lfoot -13.1795 17.3536
ltoes -3.44044
51
root -0.465905 18.8922 -12.9324 2.41651 -8.44085 0.868385
lowerback 3.51888 0.556871 -1.9003
upperback -1.47322 0.597477 -1.52215
thorax -3.49388 0.321766 -0.540468
lowerneck -10.4512 -6.40201 -10.0787
upperneck 16.8989 -8.58582 8.38478
head 7.72572 -4.04104 3.53904
rclavicle -2.35063e-014 1.03368e-014
rhumerus -38.1722 0.119211 -81.8814
rradius 34.6612
rwrist 14.5699
rhand -18.7302 3.15195
rfingers 7.12502
rthumb 7.56562 -26.6927
lclavicle -2.35063e-014 1.03368e-014
lhumerus -39.3635 16.4286 71.5843
lradius 27.959
lwrist -2.01813
lhand -13.5963 24.4642
lfingers 7.12502
lthumb 12.5184 54.0693
rfemur -3.51194 22.1294 17.3385
rtibia 15.9249
rfoot -12.9912 -18.3353
rtoes -5.81297
lfemur -1.04662 -6.99673 -20.7812
ltibia 12.8498
lfoot -13.2623 17.3857
ltoes -3.179
52
root -0.466488 18.8935 -12.9338 2.42994 -8.4243 0.910164
lowerback 3.4994 0.556177 -1.98147
upperback -1.46425 0.593537 -1.51637
thorax -3.47458 0.321561 -0.488485
lowerneck -10.3797 -6.38867 -10.1001
upperneck 16.8886 -8.57117 8.39374
head 7.70947 -4.0366 3.5491
rclavicle -1.16289e-014 2.10712e-014
rhumerus -38.1541 0.14558 -81.8864
rradius 34.6648
rwrist 14.5859
rhand -18.6637 2.71171
rfingers 7.12502
rthumb 7.62972 -27.1307
lclavicle -1.16289e-014 2.10712e-014
lhumerus -39.4524 16.4767 71.5718
lradius 27.9793
lwrist -2.04446
lhand -13.3814 24.8509
lfingers 7.12502
lthumb 12.7256 54.4431
rfemur -3.54233 22.1096 17.2889
rtibia 15.9151
rfoot -12.9006 -18.317
rtoes -5.88262
lfemur -1.11687 -6.99853 -20.8145
ltibia 12.938
lfoot -13.3459 17.3617
ltoes -3.30339
